<svg width="69" height="69" viewBox="0 0 69 69" fill="none" xmlns="http://www.w3.org/2000/svg">
<g clip-path="url(#clip0_124_55)">
<path d="M-0.00549316 65.334C0.0818142 64.9894 0.190001 64.6505 0.318451 64.319C0.924929 62.9873 1.97413 62.2854 3.43544 62.2476C4.45943 62.2206 5.48523 62.2476 6.67479 62.2476C6.27527 61.8481 5.98009 61.5602 5.69215 61.265C4.10847 59.6327 3.5416 57.7053 4.18407 55.5062C5.33044 51.5937 6.46422 47.6741 7.74377 43.8085C9.00351 40.0167 11.7246 37.8427 15.6622 37.1894C16.2885 37.0851 16.8427 36.9447 17.3394 36.4696C18.0109 35.8542 18.8943 35.5221 19.805 35.5428C21.5326 35.5428 23.2602 35.5428 24.9879 35.532C26.1702 35.532 26.9261 34.8589 27.0665 33.6909C27.0647 33.6688 27.0647 33.6465 27.0665 33.6243C27.3778 32.3646 27.0521 31.4846 25.9867 30.5812C23.8145 28.7239 22.6862 26.2116 22.3245 23.3484C21.9879 23.3196 21.6748 23.3178 21.3706 23.2638C20.6804 23.1369 20.0547 22.7765 19.5986 22.2431C19.1425 21.7096 18.8837 21.0356 18.8655 20.334C18.8386 19.5494 18.8404 18.7629 18.8655 17.9783C18.8997 16.9795 19.3011 16.1426 20.1253 15.574C20.2758 15.4857 20.3981 15.3565 20.4778 15.2012C20.5575 15.046 20.5913 14.8713 20.5752 14.6975C20.556 12.3844 20.556 10.0725 20.5752 7.76172C20.5932 4.64654 22.7959 2.59675 25.8985 2.80191C26.3322 2.83071 26.5626 2.77312 26.6868 2.25302C26.9261 1.24163 27.6982 0.651344 28.6214 0.251824L29.2206 -0.00732422H42.2878C42.6892 0.111452 43.0959 0.217631 43.4936 0.352604C45.0225 0.852532 46.339 1.85183 47.2317 3.18998C48.1243 4.52814 48.5413 6.12748 48.4156 7.73113C48.367 8.39339 48.0125 8.79111 47.4474 8.81091C46.8517 8.83431 46.472 8.43839 46.4054 7.74013C46.3406 7.07246 46.3496 6.3832 46.184 5.74252C45.914 4.69948 45.3109 3.77307 44.4664 3.10397C43.6219 2.43487 42.5821 2.05964 41.505 2.03527C37.6681 1.99567 33.8295 2.01727 29.9873 2.02447C29.208 2.02447 28.7726 2.3538 28.5764 3.01427C28.1949 4.30101 27.2627 4.90209 25.8859 4.8427C25.3316 4.79833 24.774 4.86314 24.2447 5.03347C23.3268 5.3826 22.6664 6.12765 22.6394 7.10485C22.5638 9.70173 22.6142 12.3004 22.6142 14.8919C23.9639 15.1294 24.367 14.7839 24.3814 13.4522C24.3904 12.7323 24.358 12.0125 24.4786 11.307C24.5929 10.5887 24.9636 9.93615 25.5222 9.47025C26.0807 9.00435 26.7892 8.75668 27.5164 8.77312C28.5441 8.78455 29.5657 8.93283 30.5542 9.21403C33.1777 10.0554 35.9985 10.0554 38.622 9.21403C39.5428 8.93611 40.4982 8.78949 41.46 8.77852C43.1624 8.74792 44.5194 10.1498 44.5644 11.8559C44.5806 12.3724 44.5644 12.8889 44.5644 13.4054C44.5644 14.7641 44.8955 15.0611 46.3856 14.9189C46.3856 14.199 46.3694 13.4792 46.3856 12.7503C46.4054 12.0881 46.7671 11.6705 47.3142 11.6273C47.8613 11.5842 48.3562 12.0089 48.394 12.6693C48.4264 13.364 48.3724 14.0641 48.4282 14.7551C48.4545 15.0454 48.588 15.3155 48.8025 15.5128C49.652 16.1876 50.1073 17.0299 50.1001 18.1186C50.1001 18.7701 50.1001 19.4216 50.1001 20.0713C50.0875 22.0041 48.9249 23.2152 46.9921 23.3106C46.9039 23.3106 46.8121 23.3286 46.6789 23.3412C46.58 23.8343 46.499 24.3364 46.3766 24.8313C45.7341 27.5074 44.2638 29.6561 42.1457 31.3748C41.8235 31.6339 41.7084 31.8805 41.7857 32.2836C41.8829 32.8343 41.8829 33.403 41.9873 33.9519C42.1799 34.9651 42.8997 35.5302 43.9345 35.5338C45.574 35.5338 47.2117 35.5464 48.8511 35.5338C49.4356 35.5168 50.0176 35.6167 50.563 35.8274C51.1084 36.0382 51.6062 36.3556 52.0275 36.7611C52.217 36.9057 52.4365 37.006 52.67 37.0545C53.8505 37.391 55.1013 37.571 56.2081 38.0677C58.8751 39.268 60.5434 41.3988 61.3892 44.1864C62.4798 47.7857 63.5362 51.403 64.6682 54.9843C65.4906 57.5991 64.9219 59.7947 62.9027 61.6285C62.7372 61.7779 62.5608 61.9147 62.388 62.0587L62.4438 62.2386C63.0323 62.2386 63.6208 62.226 64.2075 62.2386C64.9003 62.2584 65.6094 62.217 66.2825 62.3538C67.0706 62.5179 67.7709 62.9663 68.2498 63.6134C68.7287 64.2606 68.9528 65.0613 68.8793 65.8631C68.8167 66.6882 68.4513 67.4611 67.8533 68.0331C67.2554 68.6052 66.4671 68.936 65.64 68.9621C65.3934 68.9711 65.1451 68.9621 64.8985 68.9621H4.37665C1.634 68.9621 0.849341 68.4078 -8.89725e-05 65.8649L-0.00549316 65.334ZM17.7569 58.3766H51.1834C51.2122 58.2346 51.232 58.0909 51.2429 57.9465C51.2429 51.9069 51.2537 45.8691 51.2429 39.8295C51.2429 38.406 50.343 37.5656 48.8781 37.5638C39.292 37.5566 29.7054 37.5566 20.1181 37.5638C18.637 37.5638 17.7785 38.4366 17.7678 39.9033C17.757 41.4744 17.7678 43.0455 17.7678 44.6183C17.7849 45.0893 17.7776 45.5608 17.7461 46.0311C17.7369 46.1604 17.7019 46.2865 17.6432 46.4021C17.5846 46.5177 17.5034 46.6204 17.4045 46.7043C17.3056 46.7881 17.1909 46.8513 17.0673 46.8902C16.9436 46.9291 16.8134 46.943 16.6844 46.9309C16.1211 46.8697 15.7846 46.5476 15.7558 45.9645C15.7414 45.7197 15.7558 45.4714 15.7468 45.2248V39.2572C12.9033 39.6297 10.5278 41.6417 9.62798 44.5158C8.43842 48.3238 7.30464 52.148 6.15287 55.9669C5.70296 57.4606 6.0647 58.7581 7.15168 59.8559C7.67357 60.3832 8.29446 60.8259 8.73537 61.4108C9.5686 62.5086 10.6592 62.2422 11.7785 62.2008C11.7066 61.8931 11.6436 61.6609 11.5986 61.4144C11.1955 59.3934 12.3922 58.2506 14.1289 58.4126C14.6508 58.4612 15.1817 58.4126 15.7486 58.4126V57.484C15.7486 55.2614 15.7486 53.0389 15.7486 50.8163C15.7486 50.1702 16.1391 49.7455 16.6916 49.7149C17.2441 49.6843 17.7102 50.1198 17.7587 50.7767C17.7767 51.0215 17.7587 51.2698 17.7587 51.5164L17.7569 58.3766ZM44.8272 16.9939C42.8817 15.8637 42.5668 15.304 42.5668 13.1714C42.5668 12.7899 42.5668 12.4084 42.5668 12.0269C42.5398 11.2278 42.0971 10.7491 41.2944 10.7941C40.603 10.826 39.9181 10.9433 39.2554 11.1432C36.2245 12.1331 32.9566 12.1293 29.9279 11.1324C29.2209 10.9259 28.4902 10.8116 27.754 10.7923C26.8793 10.7473 26.4438 11.2224 26.424 12.115C26.4096 12.7197 26.424 13.3262 26.424 13.9327C26.424 15.1708 25.8445 16.0833 24.7647 16.6501C24.421 16.8301 24.2752 17.0101 24.2806 17.4042C24.304 18.9735 24.2807 20.5464 24.295 22.1156C24.3796 27.6333 29.4168 32.5212 34.8175 32.3376C39.0629 32.1936 43.661 28.4972 44.4042 24.2824C44.8253 21.8763 44.7101 19.3748 44.8325 16.9939H44.8272ZM34.4882 66.9519H64.9219C65.1685 66.9612 65.4154 66.957 65.6615 66.9393C65.9894 66.9104 66.2951 66.7614 66.5198 66.5209C66.7446 66.2804 66.8726 65.9654 66.8793 65.6363C66.886 65.3072 66.7709 64.9872 66.5561 64.7378C66.3413 64.4883 66.042 64.327 65.7155 64.2848C65.4698 64.2602 65.2226 64.2536 64.9759 64.265C44.6412 64.265 24.3053 64.265 3.96813 64.265C3.72138 64.2542 3.47415 64.2614 3.22845 64.2866C2.9018 64.3314 2.60331 64.4955 2.39041 64.7473C2.17751 64.9991 2.06529 65.3207 2.07534 65.6503C2.08539 65.9798 2.217 66.294 2.44485 66.5323C2.6727 66.7706 2.98065 66.9162 3.30943 66.9411C3.53284 66.9564 3.7569 66.96 3.98069 66.9519H34.4882ZM53.3124 39.2104V58.4216C54.0467 58.4216 54.718 58.4036 55.3874 58.4216C56.6994 58.4648 57.5884 59.4636 57.4786 60.7791C57.4408 61.2434 57.3328 61.7041 57.2536 62.181C58.4666 62.343 59.5932 62.3934 60.4408 61.2398C60.8187 60.7233 61.3676 60.331 61.8283 59.8721C62.9081 58.7923 63.3112 57.5182 62.8757 56.0587C61.6987 52.1102 60.547 48.151 59.2585 44.2404C58.3388 41.4348 56.2477 39.8385 53.3178 39.2104H53.3124ZM13.6106 60.4912C13.526 61.8733 13.8589 62.2404 15.1691 62.2404H54.0791C55.0275 62.2404 55.1589 62.1378 55.3748 61.2002C55.4234 60.9861 55.4468 60.7647 55.4918 60.4912H13.6106ZM29.2296 32.9567C29.0497 33.8817 28.8913 34.6843 28.7347 35.4906H40.2777C40.1085 34.6465 39.9483 33.8439 39.7701 32.9585C36.2806 34.7815 32.7569 34.8661 29.2296 32.9567ZM46.7635 21.259C47.7335 21.2896 48.0917 20.9603 48.1025 20.0641C48.1025 19.4162 48.1169 18.7683 48.1025 18.1204C48.0809 17.3124 47.6328 16.9615 46.7671 17.0767L46.7635 21.259ZM22.2201 21.2338V17.0389C21.2986 17.0191 20.9099 17.3592 20.8919 18.1924C20.8775 18.8421 20.8757 19.4936 20.8919 20.1432C20.9153 20.9747 21.3346 21.3184 22.2201 21.2356V21.2338Z" fill="black"/>
<path d="M34.5567 43.4847C35.4682 43.4954 36.3561 43.7763 37.108 44.2916C37.8599 44.807 38.4421 45.5338 38.781 46.3801C39.1198 47.2264 39.2001 48.1541 39.0116 49.046C38.8232 49.9379 38.3745 50.7539 37.7222 51.3908C37.07 52.0277 36.2436 52.4568 35.3474 52.624C34.4513 52.7911 33.5257 52.6888 32.6877 52.3299C31.8498 51.971 31.137 51.3716 30.6397 50.6076C30.1424 49.8436 29.8828 48.9493 29.8938 48.0378C29.8975 47.4316 30.0215 46.8322 30.2585 46.2743C30.4955 45.7164 30.8408 45.2111 31.2745 44.7876C31.7082 44.3641 32.2216 44.0309 32.785 43.8073C33.3484 43.5836 33.9506 43.474 34.5567 43.4847ZM34.481 50.6833C34.992 50.6871 35.4927 50.5396 35.92 50.2593C36.3472 49.9791 36.6819 49.5786 36.882 49.1084C37.082 48.6382 37.1383 48.1193 37.0439 47.6171C36.9494 47.115 36.7084 46.652 36.3512 46.2866C35.9941 45.9212 35.5368 45.6696 35.0369 45.5637C34.537 45.4578 34.017 45.5023 33.5423 45.6915C33.0676 45.8807 32.6596 46.2062 32.3697 46.627C32.0797 47.0477 31.9208 47.5449 31.913 48.0558C31.9043 48.398 31.9644 48.7385 32.0897 49.0571C32.215 49.3757 32.4029 49.6659 32.6423 49.9106C32.8818 50.1552 33.1679 50.3494 33.4838 50.4815C33.7996 50.6136 34.1387 50.681 34.481 50.6797V50.6833Z" fill="black"/>
</g>
<defs>
<clipPath id="clip0_124_55">
<rect width="68.91" height="68.973" fill="white"/>
</clipPath>
</defs>
</svg>
