<svg width="69" height="68" viewBox="0 0 69 68" fill="none" xmlns="http://www.w3.org/2000/svg">
<g clip-path="url(#clip0_124_59)">
<path d="M21.3933 59.2719V53.8964H20.5515C15.8231 53.8964 11.0946 53.8964 6.36615 53.8964C2.50298 53.8964 0.00185819 51.4193 0 47.5974C0 36.9057 0 26.2139 0 15.5222C0 11.7317 2.4974 9.25457 6.31783 9.25457H42.4075C43.3868 9.25457 43.751 8.7004 43.3589 7.79526C42.5766 6.009 42.5766 6.009 43.9795 4.61434C44.4887 4.11005 45.0053 3.6113 45.5014 3.09593C45.9604 2.62119 46.4937 2.45863 47.0641 2.81145C48.0099 3.39518 48.8517 3.32313 49.8848 2.87056C50.7935 2.47156 51.3454 2.00606 51.6223 1.06952C51.888 0.17177 52.2095 0.0129096 53.1664 0.00921514C54.1234 0.00552069 55.1138 0.0202985 56.0875 0.00921514C56.801 -0.0018682 57.3251 0.262284 57.4941 0.975312C57.7376 2.00237 58.2931 2.68584 59.3783 2.87056C59.4452 2.88156 59.5087 2.90745 59.5641 2.9463C60.3074 3.50047 61.0098 3.36193 61.794 2.9463C62.8104 2.41245 63.0353 2.50297 63.8584 3.31575C64.5311 3.98259 65.1926 4.66237 65.8783 5.31629C66.3818 5.79657 66.5175 6.3415 66.1644 6.93261C65.633 7.82667 65.6553 8.62282 66.0901 9.61108C66.5044 10.5532 66.9579 11.2052 67.9836 11.4343C68.7269 11.5987 69.0186 12.1141 68.9963 12.8677C68.9647 13.88 68.9721 14.8997 68.9963 15.9083C69.0093 16.5696 68.7566 17.072 68.1155 17.229C67.0006 17.5006 66.4562 18.1619 66.0269 19.2259C65.6553 20.1495 65.6664 20.8293 66.1012 21.6568C66.5528 22.5158 66.5082 22.8538 65.7594 23.4708C64.9325 24.1524 64.702 24.9338 64.7094 25.9867C64.7578 32.9452 64.7094 39.9037 64.7522 46.8604C64.7652 48.9477 64.4344 50.8485 62.7193 52.4186C62.9349 52.5757 63.1095 52.6847 63.2619 52.8176C66.3372 55.4795 68.1601 58.8304 68.8235 62.8185C68.8495 62.9774 68.8569 63.1399 68.87 63.3006C68.9461 64.2834 68.5596 64.7175 67.5692 64.7193C63.6051 64.7267 59.641 64.7267 55.6768 64.7193H54.718C54.718 65.364 54.718 65.9754 54.718 66.5869C54.7031 67.6176 54.3278 67.9944 53.276 67.9944H11.4817C10.4058 67.9944 10.0286 67.6028 10.023 66.5167C10.023 65.7334 10.023 64.9502 10.023 64.167C10.023 61.4054 11.8998 59.4104 14.7094 59.2996C16.6754 59.2201 18.6487 59.2682 20.6184 59.2608L21.3933 59.2719ZM6.27882 43.5871H43.5559C43.1452 39.5398 44.5352 36.3293 48.1085 34.3509C51.7189 32.3578 55.1937 32.9748 58.4437 35.4814V26.2693C58.3326 26.2976 58.2288 26.3487 58.1388 26.4193C58.0489 26.49 57.9748 26.5786 57.9215 26.6794C57.7752 26.9931 57.651 27.3166 57.5499 27.6474C57.3176 28.3863 56.8382 28.7206 56.0485 28.6948C55.0748 28.6633 54.1011 28.6948 53.1274 28.6855C52.1537 28.6763 51.8954 28.5396 51.6111 27.5993C51.3361 26.6905 50.8047 26.2269 49.9127 25.8482C48.8926 25.4178 48.0434 25.2682 47.0864 25.8814C46.4937 26.262 45.9473 26.0662 45.4698 25.5803C44.8101 24.9006 44.1282 24.2429 43.4574 23.5742C42.6714 22.7929 42.5785 22.5324 43.0858 21.5756C43.5039 20.7794 43.4574 20.1181 43.1304 19.2684C42.7123 18.1951 42.1845 17.4618 41.012 17.2161C40.4323 17.0942 40.1517 16.6342 40.1666 16.0228C40.1617 15.8506 40.1443 15.679 40.1145 15.5093H6.27882V43.5871ZM47.144 49.4982C46.3729 48.5746 45.4716 47.6288 44.7284 46.5685C44.3697 46.055 44.0706 45.8296 43.4276 45.8296C30.8428 45.8481 18.2579 45.8524 5.67305 45.8425C4.33515 45.8425 4.02486 45.5359 4.02486 44.2281C4.02486 34.689 4.02486 25.1505 4.02486 15.6127C4.02486 13.7969 4.58231 13.2464 6.4405 13.2464H39.9659L40.5976 11.4712C40.6199 11.4712 40.5735 11.462 40.5289 11.462C29.0082 11.462 17.4874 11.462 5.96665 11.462C3.79629 11.462 2.22424 13.0635 2.22238 15.2507C2.22238 26.1259 2.22238 37.0005 2.22238 47.8745C2.22238 50.0819 3.80371 51.6687 6.04096 51.6705C18.2084 51.6816 30.3757 51.6816 42.5431 51.6705C42.7923 51.6685 43.0377 51.6097 43.2604 51.4987C44.602 50.8282 45.9269 50.1299 47.1403 49.4982H47.144ZM38.4105 62.4639H66.4599C65.4267 56.4733 59.6515 50.5308 51.3918 51.024C45.0443 51.4045 38.4923 57.1623 38.4068 62.4639H38.4105ZM45.1149 22.1944C45.4401 22.477 45.756 22.6654 45.9511 22.9333C46.4323 23.6001 46.9601 23.6629 47.6234 23.2325C48.2868 22.8021 48.9353 22.9019 49.6359 23.3009C50.3498 23.6779 51.1015 23.9794 51.8787 24.2005C52.1586 24.2688 52.4167 24.4062 52.6291 24.5999C52.8415 24.7936 53.0014 25.0374 53.0939 25.3088C53.5287 26.4799 53.551 26.4319 54.7663 26.4873C55.4074 26.5169 55.766 26.3377 55.8998 25.7059C56.0856 24.8027 56.6431 24.3039 57.5722 24.1136C58.2066 23.9776 58.8105 23.7271 59.3541 23.3748C60.1513 22.8668 60.8853 22.8206 61.6843 23.3119C61.9129 23.4505 62.3124 23.6574 62.4276 23.5669C62.9308 23.2024 63.3778 22.7668 63.7544 22.2738C63.8696 22.1168 63.6837 21.6661 63.5351 21.4056C63.0947 20.6261 63.1096 19.9278 63.6113 19.152C63.9692 18.5839 64.2268 17.9591 64.3731 17.3048C64.5794 16.4126 65.0607 15.8916 65.9433 15.6792C66.2035 15.6164 66.6308 15.4834 66.655 15.3338C66.7578 14.7232 66.7716 14.1011 66.6958 13.4866C66.6698 13.3018 66.2313 13.0894 65.9526 13.0192C65.0365 12.7902 64.5831 12.2286 64.3601 11.3235C64.1709 10.6181 63.8851 9.94185 63.5109 9.31368C63.3435 9.05328 63.2491 8.75318 63.2373 8.44436C63.2256 8.13555 63.2969 7.82921 63.444 7.55697C63.942 6.51144 63.8807 6.53546 63.104 5.65987C62.6339 5.12972 62.2139 5.03182 61.6379 5.4105C60.8686 5.91848 60.1513 5.81135 59.382 5.32737C58.8101 4.97239 58.1818 4.71631 57.5239 4.57001C56.6487 4.38529 56.1432 3.9087 55.9165 3.06637C55.8403 2.78374 55.7121 2.32748 55.5449 2.29238C54.9303 2.19193 54.3041 2.18259 53.6867 2.26468C53.512 2.28684 53.3299 2.70616 53.2575 2.97401C53.0048 3.88284 52.477 4.40561 51.507 4.59957C50.8527 4.75137 50.2301 5.01582 49.6674 5.38094C48.9242 5.83721 48.2552 5.876 47.5287 5.42897C47.3992 5.33149 47.2471 5.26796 47.0864 5.24425C46.8433 5.23132 46.6006 5.27628 46.3785 5.3754C46.1629 5.49177 46.031 5.74484 45.821 5.89262C45.2208 6.29901 45.2022 6.76267 45.5739 7.33715C46.0496 8.07604 45.9734 8.77244 45.507 9.52796C45.1344 10.1381 44.8603 10.8025 44.6949 11.4971C44.5091 12.2896 44.0966 12.7902 43.318 12.9546C42.5395 13.119 42.2143 13.5217 42.3759 14.303C42.3973 14.4166 42.3973 14.5331 42.3759 14.6466C42.2663 15.2377 42.5413 15.524 43.1006 15.657C44.0111 15.875 44.6039 16.3959 44.7433 17.3787C44.7926 17.745 44.9193 18.0969 45.1149 18.4113C45.9474 19.6489 46.2428 20.881 45.1149 22.1962V22.1944ZM59.1201 42.0779C59.1127 40.7598 58.7125 39.4734 57.9702 38.3813C57.2278 37.2891 56.1765 36.4402 54.9491 35.9417C53.7216 35.4432 52.3731 35.3175 51.0738 35.5804C49.7746 35.8434 48.5828 36.4832 47.6491 37.4191C46.7154 38.355 46.0817 39.545 45.828 40.8388C45.5743 42.1325 45.7119 43.472 46.2235 44.688C46.7352 45.9041 47.5979 46.9421 48.7026 47.671C49.8074 48.3999 51.1047 48.7869 52.4306 48.7833C54.21 48.7711 55.9121 48.0591 57.1649 46.8029C58.4177 45.5468 59.1193 43.8486 59.1163 42.0797L59.1201 42.0779ZM12.2455 65.7464H52.4324V64.723H51.5609C46.8089 64.723 42.0576 64.723 37.3068 64.723C36.2086 64.723 35.7887 64.2206 35.9577 63.1584C36.0414 62.6227 36.125 62.087 36.2179 61.4848H15.5028C15.2018 61.4801 14.9008 61.495 14.6016 61.5292C13.3009 61.7139 12.2975 62.5784 12.251 63.6073C12.225 64.2963 12.2455 64.9872 12.2455 65.7464ZM40.0978 53.9518H23.716V59.2719H24.5206C28.2741 59.2719 32.0258 59.246 35.7794 59.2903C36.6137 59.2996 37.0336 59.0945 37.4387 58.2947C38.2006 56.7726 39.2059 55.365 40.0978 53.9518ZM60.798 25.3587C60.7719 25.6025 60.7404 25.7577 60.7385 25.9128C60.7385 30.106 60.7385 34.2998 60.7385 38.4943C60.7484 38.769 60.8004 39.0406 60.8927 39.2997C61.4773 41.0385 61.5053 42.9147 60.9728 44.67C60.4404 46.4253 59.3737 47.9733 57.9196 49.101C57.7654 49.223 57.6205 49.3578 57.4793 49.4816C58.4827 49.9434 59.4582 50.3571 60.3966 50.8393C60.7813 51.0388 61.0172 50.9852 61.3071 50.7137C62.1916 49.8824 62.5298 48.8664 62.5242 47.6676C62.5056 44.5809 62.5242 41.4923 62.5242 38.4038C62.5242 34.5098 62.5242 30.6159 62.5242 26.7219C62.5242 26.4873 62.5019 26.1253 62.3589 26.0403C61.8511 25.779 61.3266 25.5513 60.7887 25.3587H60.798Z" fill="black"/>
<path d="M16.9318 38.655H19.143V37.8164C19.143 33.6293 19.143 29.4367 19.143 25.2386C19.143 23.8994 19.4255 23.6204 20.769 23.6186H24.87C26.2543 23.6186 26.5517 23.9105 26.5535 25.2645V38.6384H28.7722V19.8115C28.7722 18.5055 29.0583 18.2155 30.3461 18.2136C31.8326 18.2136 33.3191 18.2136 34.7945 18.2136C35.7757 18.2136 36.164 18.5831 36.164 19.5325C36.164 26.1899 36.164 32.8473 36.164 39.5047C36.164 40.4856 35.7497 40.8938 34.7667 40.8938C26.8174 40.8938 18.8693 40.8938 10.9224 40.8938C9.89299 40.8938 9.50279 40.5022 9.50094 39.4585C9.4935 36.3724 9.4935 33.2857 9.50094 30.1984C9.50094 29.1658 9.89487 28.7871 10.9447 28.7816C12.4747 28.7742 14.0039 28.7742 15.5326 28.7816C16.5267 28.7816 16.9225 29.1806 16.9262 30.1781C16.9355 32.7346 16.9262 35.2912 16.9262 37.8496L16.9318 38.655ZM33.9007 38.655V20.4746H31.0577V38.6495L33.9007 38.655ZM24.2809 38.655V25.8907H21.41V38.655H24.2809ZM14.6574 38.655V31.0389H11.7735V38.6458L14.6574 38.655Z" fill="black"/>
<path d="M61.9538 14.3252C61.9618 15.7773 61.5368 17.1991 60.7326 18.4113C59.9284 19.6235 58.781 20.5716 57.4351 21.136C56.0893 21.7004 54.6054 21.8558 53.1708 21.5825C51.7362 21.3092 50.4153 20.6195 49.3747 19.6005C48.334 18.5815 47.6205 17.2788 47.324 15.857C47.0276 14.4351 47.1615 12.9578 47.7089 11.6116C48.2563 10.2654 49.1927 9.11053 50.3998 8.2929C51.6069 7.47528 53.0307 7.0315 54.4913 7.01761C55.4645 7.00835 56.43 7.19024 57.3323 7.55284C58.2346 7.91544 59.056 8.4516 59.7494 9.13057C60.4427 9.80954 60.9944 10.6179 61.3727 11.5094C61.7509 12.4008 61.9485 13.3577 61.9538 14.3252ZM54.5712 9.22874C53.5515 9.22838 52.5546 9.52844 51.7064 10.091C50.8582 10.6536 50.1968 11.4535 49.8056 12.3896C49.4145 13.3257 49.3112 14.356 49.5088 15.3505C49.7065 16.3449 50.1961 17.2588 50.916 17.9767C51.6358 18.6946 52.5535 19.1844 53.5532 19.384C54.5529 19.5837 55.5897 19.4844 56.5326 19.0986C57.4755 18.7128 58.2823 18.0578 58.851 17.2165C59.4197 16.3751 59.7247 15.3851 59.7276 14.3714C59.7296 13.0098 59.1875 11.7031 58.2205 10.7387C57.2536 9.77431 55.9409 9.23119 54.5712 9.22874Z" fill="black"/>
</g>
<defs>
<clipPath id="clip0_124_59">
<rect width="69" height="68" fill="white"/>
</clipPath>
</defs>
</svg>
