<svg width="62" height="69" viewBox="0 0 62 69" fill="none" xmlns="http://www.w3.org/2000/svg">
<g clip-path="url(#clip0_121_35)">
<path d="M0.947025 68.9862C0.167123 68.5473 -0.0540261 67.8754 0.0101217 67.0094C0.600956 59.1733 4.11894 53.1906 11.2664 49.6777C13.5031 48.5788 15.9778 47.9575 18.3564 47.1726C19.0029 46.9599 19.4131 46.6476 19.6967 46.0179C20.2673 44.7535 20.924 43.5263 21.4591 42.456C20.5425 41.033 19.7086 39.7112 18.8341 38.4164C18.721 38.2476 18.4121 38.1716 18.1791 38.1277C17.4144 37.9842 16.5873 38.0129 15.8867 37.726C14.332 37.0845 13.5807 35.7965 13.4862 34.1337C13.4558 33.5969 13.4862 33.0584 13.4862 32.5165C11.4774 31.6404 10.7194 30.0839 10.7734 27.9772C10.8562 24.7698 10.7009 21.5455 10.9271 18.355C11.2849 13.3194 13.4187 9.02491 17.0937 5.5643C21.579 1.34405 26.9522 -0.487534 33.0732 0.120181C38.6558 0.675566 43.2339 3.22797 46.762 7.58327C49.8462 11.3933 51.2456 15.8077 51.2237 20.693C51.2119 23.2083 51.2237 25.7236 51.2237 28.2389C51.2237 31.0681 49.571 32.7292 46.7603 32.7343H44.7076C44.3244 36.3721 43.0364 39.6065 40.4452 42.2518C41.1829 43.7305 41.8902 45.1823 42.6397 46.6104C42.7427 46.8079 43.0398 46.9481 43.2761 47.024C45.2056 47.6841 47.1587 48.2918 49.0764 48.9755C54.7265 50.986 58.4268 54.9834 60.6399 60.4545C61.4839 62.5512 61.8806 64.7524 62.0039 67.0128C62.0528 67.8788 61.8351 68.5507 61.0636 68.9896L0.947025 68.9862ZM43.0651 22.9197C42.6954 22.8555 42.4135 22.8082 42.1316 22.7508C41.0073 22.5466 39.8695 22.3963 38.7554 22.1279C34.8105 21.1834 31.1681 19.258 28.1659 16.5302C27.9607 16.3402 27.6926 16.2327 27.413 16.228C25.7059 16.3809 24.0743 17.0025 22.6982 18.0242C21.2633 19.0607 20.3247 20.5259 19.2967 21.9068C19.0937 22.1899 18.9915 22.5328 19.0063 22.8808C19.2663 25.8316 19.5381 28.7892 19.8672 31.7248C20.004 32.9622 20.2876 34.1827 20.507 35.4386C21.7444 35.4386 22.8704 35.4251 23.9862 35.447C24.1366 35.4669 24.2893 35.4345 24.4187 35.3552C24.5481 35.2759 24.6463 35.1546 24.6969 35.0115C25.443 33.5395 26.6804 32.795 28.3246 32.7495C29.221 32.7258 30.1207 32.7224 31.0256 32.7495C33.3163 32.8254 35.0517 34.5844 35.0483 36.8009C35.0449 39.0174 33.2927 40.7595 30.9969 40.8253C30.1899 40.8473 29.3797 40.8253 28.5711 40.8253C26.7918 40.8338 25.4667 40.0876 24.6496 38.4789C24.5804 38.3404 24.4234 38.1531 24.3019 38.1497C23.4899 38.1193 22.6779 38.1345 21.7697 38.1345C23.0172 40.1602 24.5635 41.6711 26.6095 42.5776C33.0243 45.4203 39.7007 41.7555 41.4648 35.1499C42.0657 32.9098 42.2767 30.56 42.5806 28.249C42.8136 26.49 42.9064 24.7225 43.0651 22.9197ZM19.4317 49.6406C17.6761 50.228 16.0724 50.8003 14.4467 51.3017C10.2164 52.6049 7.12039 55.2805 4.96638 59.0889C3.71089 61.2837 2.96491 63.7328 2.78366 66.2548H28.6437C25.0007 60.9576 21.4287 55.7633 19.4283 49.6406H19.4317ZM33.4531 66.2447H59.2523C59.178 65.686 59.1392 65.1694 59.0362 64.6663C57.8849 58.9825 54.9291 54.5968 49.5963 52.1052C47.5369 51.143 45.2934 50.5758 43.1326 49.8313C43.0293 49.7958 42.9231 49.7693 42.8152 49.752C41.3888 52.6437 40.1244 55.5236 38.5815 58.2431C37.0386 60.9627 35.2053 63.5286 33.4497 66.2447H33.4531ZM43.0567 20.1444C43.0828 20.1047 43.1033 20.0615 43.1174 20.0161C43.5985 15.3536 40.6528 10.5948 36.284 8.85103C34.1722 8.00698 31.9844 8.00698 29.7865 8.07113C25.4785 8.19098 22.2576 10.161 20.1559 13.9187C19.5001 15.06 19.1052 16.3323 18.9995 17.6443C19.089 17.6443 19.1194 17.6528 19.1312 17.6443C19.2291 17.5532 19.3287 17.4603 19.4199 17.3624C21.5857 15.0514 24.2647 13.8174 27.4046 13.4798C27.8346 13.4201 28.2726 13.4625 28.6832 13.6036C29.0938 13.7446 29.4654 13.9804 29.7679 14.2918C33.4953 17.825 37.9856 19.6515 43.0533 20.1444H43.0567ZM48.4012 18.8159C48.0349 10.919 41.1592 2.73167 31.0695 2.68778C21.0084 2.64558 13.9994 10.7299 13.6044 18.8091H16.1568C16.1787 18.5559 16.1939 18.3365 16.2159 18.117C16.805 12.3893 19.7609 8.40875 25.0818 6.22941C27.6696 5.17097 30.4094 5.25538 33.1205 5.41744C35.9407 5.59745 38.6333 6.65761 40.8192 8.4486C43.0051 10.2396 44.5741 12.6712 45.3052 15.4009C45.6006 16.5133 45.7323 17.6697 45.9399 18.8142L48.4012 18.8159ZM30.926 52.4867C30.8513 52.5226 30.7806 52.5662 30.715 52.6167C29.2632 54.1461 27.8232 55.6873 26.3546 57.2016C26.0355 57.5308 26.2094 57.7401 26.385 58.0085C27.8367 60.2199 29.2868 62.4319 30.7352 64.6444C30.8197 64.7588 30.9122 64.8672 31.0121 64.9685C32.3946 62.8938 33.762 60.8698 35.0989 58.8272C35.9616 57.5105 35.943 57.497 34.8187 56.3744L30.926 52.4867ZM37.3306 54.9091C37.3306 54.9091 37.3728 54.8939 37.3897 54.8568C38.3328 52.6825 39.2736 50.5066 40.2122 48.3289C40.2748 48.2127 40.2928 48.0776 40.2628 47.9491C39.6923 46.7674 39.1048 45.6128 38.4903 44.3838L32.8149 50.3901L37.3306 54.9091ZM24.6007 55.1472L28.8209 50.6872C26.8897 48.7729 25.0294 46.916 23.1793 45.0591C22.7674 45.8812 22.2981 46.7978 21.8524 47.7263C21.7589 47.8967 21.7319 48.0958 21.7765 48.285C22.6813 50.5251 23.6081 52.7534 24.6007 55.1539V55.1472ZM16.8354 30.0215C16.6092 27.1517 16.3898 24.3765 16.1602 21.581H13.4812C13.4812 23.9595 13.466 26.2874 13.4896 28.6153C13.4896 29.4425 14.0197 29.9658 14.8316 30.0097C15.4782 30.0569 16.1298 30.035 16.8303 30.035L16.8354 30.0215ZM45.8403 21.5624C45.6158 24.3951 45.3964 27.177 45.1651 30.0333C45.7357 30.0333 46.291 30.0333 46.8532 30.0333C48.0349 30.0215 48.5177 29.5269 48.521 28.3452C48.521 26.2621 48.521 24.1801 48.521 22.0992C48.521 21.9304 48.4923 21.7616 48.4754 21.5725L45.8403 21.5624ZM29.5856 38.1142C30.0566 38.1142 30.5293 38.1412 30.9986 38.1142C31.7818 38.0619 32.3372 37.4863 32.3355 36.7773C32.3307 36.4241 32.1877 36.0868 31.9371 35.8378C31.6865 35.5889 31.3484 35.448 30.9952 35.4453C30.0988 35.4065 29.199 35.4065 28.3027 35.4453C27.9497 35.4488 27.6122 35.5904 27.3623 35.8396C27.1125 36.0889 26.9701 36.426 26.9657 36.7789C26.9657 37.4896 27.5211 38.0585 28.306 38.1159C28.7348 38.1379 29.1636 38.1142 29.5907 38.1142H29.5856ZM30.9006 48.4859L33.1492 46.1023H28.5238L30.9006 48.4859ZM16.2479 32.7562C15.9762 34.2181 16.2716 35.55 17.7284 35.3322C17.6541 34.9153 17.5832 34.4983 17.5073 34.0814C17.4313 33.6644 17.3385 33.2069 17.2625 32.7562H16.2479Z" fill="black"/>
<path d="M53.7187 62.7736C53.5364 62.6302 53.062 62.4276 52.8527 62.068C52.0351 60.6479 50.9832 59.3763 49.7415 58.3069C49.0899 57.7516 49.0663 56.9683 49.5727 56.3977C50.0791 55.8271 50.8304 55.768 51.5005 56.3015C53.0216 57.4983 54.2635 59.0122 55.1401 60.7378C55.6313 61.7152 55.0219 62.772 53.7187 62.7736Z" fill="black"/>
<path d="M45.8218 56.0314C45.5576 56.0287 45.3001 55.9478 45.0818 55.7989C44.8636 55.65 44.6943 55.4398 44.5955 55.1948C44.4966 54.9498 44.4725 54.6809 44.5263 54.4223C44.5801 54.1636 44.7093 53.9267 44.8977 53.7414C45.086 53.5561 45.3251 53.4307 45.5846 53.3812C45.8441 53.3317 46.1125 53.3601 46.3558 53.463C46.5992 53.5659 46.8066 53.7385 46.9519 53.9592C47.0972 54.1799 47.1739 54.4386 47.1722 54.7028C47.159 55.0547 47.0118 55.3882 46.7607 55.6352C46.5097 55.8821 46.1738 56.0239 45.8218 56.0314Z" fill="black"/>
</g>
<defs>
<clipPath id="clip0_121_35">
<rect width="62.0073" height="68.9859" fill="white"/>
</clipPath>
</defs>
</svg>
