<svg width="63" height="69" viewBox="0 0 63 69" fill="none" xmlns="http://www.w3.org/2000/svg">
<g clip-path="url(#clip0_124_49)">
<path d="M13.0044 69.0001C12.1378 68.5085 11.858 68.008 12.0488 67.286C12.2105 66.6774 12.7337 66.3119 13.5022 66.3065C14.8575 66.3065 16.211 66.3065 17.5863 66.3065C17.6034 65.7776 17.6489 65.2499 17.7226 64.7257C17.8705 63.8303 18.3242 63.0123 19.0077 62.4086C19.6913 61.805 20.5632 61.4522 21.4778 61.4092C22.5679 61.339 23.6579 61.4002 24.748 61.3642C24.8562 61.3516 24.9606 61.3167 25.0544 61.2619C25.1483 61.207 25.2295 61.1333 25.293 61.0455C25.4293 60.8277 25.4474 60.5342 25.5092 60.2731C25.9452 58.442 26.3794 56.6109 26.8391 54.6826H25.9743C19.2886 54.6826 12.6029 54.6826 5.91721 54.6826C2.98858 54.6826 0.819357 53.0928 0.185305 50.4821C0.0688549 49.979 0.0127665 49.4641 0.0181771 48.9481C0.00848768 37.5366 0.00848768 26.1257 0.0181771 14.7154C0.0181771 11.8527 1.69321 9.69388 4.3475 9.11413C4.90401 9.01314 5.46983 8.97149 6.03528 8.98989C17.8903 8.98269 29.7441 8.98569 41.5967 8.99889C41.838 9.01888 42.08 8.96915 42.2935 8.85572C42.5069 8.74229 42.6826 8.57001 42.7994 8.35972C44.1238 6.34858 45.4373 4.32664 46.8598 2.38391C48.2242 0.522211 50.1664 -0.261 52.4573 0.0810919C54.8591 0.441189 56.4869 1.82756 57.2626 4.11958C57.7193 5.47695 57.6454 6.95473 57.0555 8.2607C56.9702 8.46055 56.8739 8.6586 56.7431 8.94848L57.735 8.99349C59.0614 9.03816 60.3255 9.56236 61.2887 10.4672C62.2519 11.372 62.8477 12.595 62.9637 13.9052C62.9927 14.2185 63.0091 14.5336 63.0091 14.8469C63.0091 26.1683 63.0091 37.4892 63.0091 48.8094C63.0091 51.7244 61.4249 53.8742 58.7887 54.4972C58.1692 54.6285 57.5364 54.6889 56.9029 54.6772C50.3056 54.688 43.7102 54.688 37.1165 54.6772H36.2081C36.339 55.2714 36.4498 55.8079 36.5715 56.3391C36.9221 57.8011 37.2982 59.2558 37.6161 60.725C37.7288 61.2652 37.9595 61.411 38.4809 61.384C39.2712 61.3426 40.0669 61.3714 40.8609 61.3732C43.6787 61.3732 45.3519 63.0135 45.3828 65.7898V66.3137H49.3106C50.2535 66.3137 50.7895 66.636 50.9639 67.295C51.1565 68.0152 50.8749 68.5175 50.0101 69.0091L13.0044 69.0001ZM40.523 11.6762H5.90448C3.79522 11.6762 2.72332 12.7331 2.72332 14.8217C2.72332 23.0211 2.72332 31.2193 2.72332 39.4163V40.2067C4.03321 40.2067 5.25406 40.1869 6.47493 40.2067C7.40329 40.2265 7.99919 40.8117 7.97012 41.6021C7.94105 42.3925 7.3688 42.8714 6.44951 42.8912C5.95172 42.902 5.45211 42.8912 4.95432 42.8912H2.7742C2.7524 43.1541 2.72514 43.3287 2.72514 43.5034C2.72514 45.3219 2.71242 47.1422 2.72514 48.9607C2.73786 50.8548 3.86423 51.9729 5.78818 51.9747C22.9227 51.9747 40.0567 51.9747 57.19 51.9747C59.1466 51.9747 60.264 50.853 60.2785 48.9139C60.2894 47.207 60.2785 45.4929 60.2785 43.7915C60.2785 42.8912 60.2785 42.8912 59.3701 42.8912H18.2258C17.9313 42.8993 17.6366 42.8921 17.3428 42.8696C17.0253 42.8389 16.7294 42.6962 16.5091 42.4675C16.2887 42.2388 16.1586 41.9393 16.1423 41.6235C16.126 41.3077 16.2247 40.9966 16.4203 40.7468C16.616 40.497 16.8957 40.3252 17.2084 40.2625C17.5436 40.2102 17.883 40.1885 18.2222 40.1977H60.2785V39.4379C60.2785 31.2385 60.2785 23.0403 60.2785 14.8433C60.2818 14.5961 60.2697 14.349 60.2422 14.1033C60.1778 13.4472 59.8712 12.8378 59.3814 12.3919C58.8916 11.946 58.2529 11.695 57.5878 11.687C56.8412 11.6582 56.089 11.7122 55.3441 11.6654C54.7482 11.6276 54.354 11.8239 53.9689 12.292C50.1815 16.9084 46.3754 21.5105 42.5505 26.0981C42.2071 26.5104 42.0273 26.8651 42.2108 27.4197C42.3489 27.9174 42.4234 28.4303 42.4324 28.9465C42.6631 32.506 40.1996 35.4984 36.646 35.8585C35.3742 35.9882 34.0698 35.8729 32.7817 35.8585C31.0503 35.8351 29.4752 36.197 28.1417 37.3997C27.3205 38.1415 26.2086 37.7688 25.9089 36.7048C25.3257 34.6198 24.9605 32.497 25.0005 30.3274C25.095 24.7639 28.307 21.388 33.8082 21.0081C34.0804 20.9618 34.3236 20.8119 34.4859 20.5904C35.3543 19.3589 36.1882 18.1003 37.0293 16.8508L40.523 11.6762ZM40.9008 15.974L44.9631 18.961L46.2549 17.4036C48.8117 14.3151 51.3697 11.2279 53.9289 8.14186C54.721 7.19121 55.0371 6.13972 54.6556 4.9478C54.4951 4.36793 54.1637 3.84869 53.7038 3.45644C53.2439 3.0642 52.6764 2.81678 52.0739 2.74581C50.7495 2.53875 49.6595 3.03029 48.9037 4.13038C47.4121 6.29097 45.9515 8.48936 44.4781 10.6697L40.9008 15.974ZM28.0745 33.9518C29.2408 33.7034 30.3473 33.3487 31.4773 33.255C32.8217 33.1398 34.1879 33.264 35.5432 33.255C36.6024 33.255 37.6088 33.075 38.45 32.326C39.9706 30.9558 39.9489 28.9771 39.4165 27.4845C39.3243 27.3078 39.1856 27.1591 39.015 27.0542C37.6198 26.0207 36.2202 24.9926 34.8165 23.9699C34.6578 23.8445 34.4708 23.7593 34.2714 23.7215C31.9405 23.4334 29.2681 24.9692 28.3779 27.1208C27.4295 29.4038 27.6639 31.7246 28.0745 33.9518ZM42.6086 66.2795C42.7485 64.5799 42.2925 64.0721 40.6737 64.0721C34.5149 64.0721 28.3561 64.0721 22.1972 64.0721C20.6857 64.0721 20.1388 64.7563 20.4441 66.2777L42.6086 66.2795ZM28.0418 61.3174H34.9618L33.374 54.7114H29.6278C29.1028 56.899 28.5796 59.0704 28.04 61.3174H28.0418ZM40.274 24.6217L43.2354 21.0459L39.3857 18.2192L36.7931 22.0596C37.9486 22.9094 39.0714 23.7359 40.2722 24.6217H40.274Z" fill="black"/>
<path d="M12.027 42.8894C11.672 42.8856 11.3331 42.7424 11.0845 42.4913C10.8358 42.2402 10.6978 41.9016 10.7007 41.5498C10.6993 41.3701 10.7342 41.1919 10.8035 41.0258C10.8727 40.8596 10.975 40.709 11.1041 40.5827C11.2332 40.4565 11.3865 40.3572 11.555 40.2908C11.7235 40.2243 11.9038 40.1921 12.0851 40.1959C12.2664 40.1998 12.4451 40.2397 12.6106 40.3132C12.7761 40.3868 12.925 40.4925 13.0485 40.6241C13.172 40.7557 13.2676 40.9106 13.3296 41.0795C13.3917 41.2484 13.4188 41.4279 13.4096 41.6074C13.4039 41.7816 13.3637 41.953 13.2911 42.1118C13.2185 42.2706 13.1151 42.4136 12.9866 42.5327C12.8582 42.6517 12.7073 42.7445 12.5427 42.8058C12.378 42.867 12.2028 42.8954 12.027 42.8894Z" fill="black"/>
</g>
<defs>
<clipPath id="clip0_124_49">
<rect width="63" height="69" fill="white"/>
</clipPath>
</defs>
</svg>
