<svg width="67" height="67" viewBox="0 0 67 67" fill="none" xmlns="http://www.w3.org/2000/svg">
<g clip-path="url(#clip0_118_11)">
<path d="M39.3085 54.5023V58.4713H42.6428C43.6078 58.4529 44.5548 58.7345 45.3529 59.2773C46.7062 60.2092 47.3846 61.5223 47.4405 63.1501C47.4702 64.0243 47.458 64.8985 47.4405 65.7728C47.43 66.4634 47.1765 66.7099 46.4754 66.7099C37.5572 66.7099 28.6401 66.7099 19.7242 66.7099C18.9829 66.7099 18.7381 66.4756 18.7363 65.7325C18.7363 64.7097 18.6961 63.6781 18.7958 62.6623C18.9063 61.521 19.4366 60.4615 20.284 59.689C21.1313 58.9166 22.2354 58.4864 23.3819 58.4817C24.5307 58.4608 25.6811 58.4817 26.8666 58.4817V54.5023H3.94974C1.37778 54.5023 0 53.121 0 50.5368V12.461C0 9.87676 1.37603 8.49898 3.95149 8.49898C9.29473 8.49898 14.638 8.49898 19.9812 8.50947C20.4953 8.50947 20.7645 8.38184 21.0041 7.88003C23.4659 2.71338 27.6289 0.0120358 33.3026 -0.000203288C38.9763 -0.0124424 43.1289 2.72562 45.5889 7.88703C45.8145 8.35736 46.0418 8.51297 46.5523 8.51122C51.7854 8.49199 57.0202 8.49898 62.2533 8.49898C64.7816 8.49898 66.1786 9.89774 66.1786 12.426C66.1786 25.1407 66.1786 37.8548 66.1786 50.5683C66.1786 53.1053 64.7798 54.5023 62.2656 54.5023H39.3085ZM4.47077 46.4035C7.22982 46.4035 9.91018 46.3878 12.5905 46.4175C13.1063 46.4175 13.2987 46.2426 13.4455 45.7758C14.3477 42.9346 15.2744 40.1004 16.2028 37.2661C17.0316 34.7344 18.7153 33.0279 21.2296 32.1572C23.3068 31.4386 25.3769 30.692 27.4855 30.073C28.407 29.8038 28.8546 29.3457 28.9909 28.4208C29.0539 27.9994 28.9909 27.8088 28.6115 27.6077C26.7964 26.6241 25.3277 25.106 24.4048 23.2593C24.2754 23.0128 24.1495 22.7645 24.0254 22.5215C22.9553 22.9359 22.1982 22.7698 21.616 22.0949C21.4002 21.8467 21.1236 21.6588 20.8135 21.5494C19.2399 21.0248 18.266 19.9758 17.9163 18.3812C17.5666 16.7586 17.9932 15.3336 19.3028 14.2828C19.7836 13.8964 19.8361 13.5083 19.7487 12.989H4.47077V46.4035ZM61.6938 46.4035V13.003H46.6572C46.8495 13.5275 46.888 14.052 47.173 14.337C48.3707 15.5225 48.7973 16.9072 48.3882 18.5141C47.9895 20.0877 47.0069 21.1507 45.3983 21.5808C45.2109 21.6163 45.0363 21.7014 44.893 21.8274C43.9436 22.8904 43.5677 22.9936 42.1969 22.4865C41.1479 24.8749 39.5008 26.7213 37.1265 27.898C37.2287 28.2213 37.3082 28.5514 37.3642 28.8858C37.4219 29.4646 37.7367 29.7129 38.2734 29.8877C40.4677 30.6046 42.6445 31.3774 44.8283 32.1135C47.43 32.9877 49.154 34.7268 50.0002 37.3308C50.9234 40.1645 51.8466 42.9999 52.7698 45.837C52.8589 46.1098 52.8729 46.4227 53.3275 46.4192C56.0918 46.4 58.8596 46.4105 61.6938 46.4105V46.4035ZM26.9942 31.7638C25.1846 32.3775 23.4326 32.965 21.6842 33.5664C19.6508 34.2658 18.2887 35.6313 17.6191 37.677C16.7355 40.3871 15.8561 43.0989 14.9807 45.8125C14.923 45.9874 14.8915 46.171 14.8443 46.3633H51.3326C51.3212 46.2638 51.3037 46.1651 51.2801 46.0678C50.3412 43.1689 49.4372 40.2577 48.4441 37.378C47.8024 35.5229 46.4649 34.2815 44.6203 33.6049C43.844 33.3216 43.0554 33.0699 42.2721 32.8058L39.2578 31.7987C38.5007 33.3409 37.7839 34.8061 37.06 36.2695C36.5739 37.2504 36.0109 37.2871 35.4042 36.3814C34.6594 35.2589 33.9181 34.1347 33.1313 32.9475C32.3515 34.1312 31.6119 35.2572 30.867 36.3814C30.2603 37.2976 29.6956 37.2556 29.2112 36.28C28.4821 34.7973 27.7565 33.3129 26.9942 31.7638ZM64.64 47.9089H1.47744V50.4372C1.47744 52.3395 2.13835 53.0074 4.01443 53.0074H62.1047C62.41 53.0159 62.7154 53.0042 63.0191 52.9724C63.8584 52.857 64.5928 52.1559 64.6295 51.3219C64.6819 50.1959 64.6417 49.0646 64.6417 47.9089H64.64ZM30.9282 12.3998C30.04 13.8387 28.7497 14.5626 27.1393 14.7199C25.9609 14.8353 25.2982 15.5137 24.959 16.5838C24.5968 17.7582 24.5588 19.0088 24.8489 20.2031C25.6374 23.6562 27.7111 26.0271 31.1188 26.9993C34.4076 27.9382 37.1177 26.6898 39.305 24.2332C40.7842 22.5687 41.6742 20.6367 41.4643 18.3305C41.3087 16.61 40.3751 15.6204 38.6668 15.4053C37.9552 15.3144 37.2314 15.3092 36.5197 15.213C34.3779 14.921 32.5525 13.9611 30.9282 12.3998ZM20.1753 65.1556H45.9491C45.9491 64.5331 45.9491 63.9893 45.9491 63.4456C45.9316 61.2495 44.643 59.9487 42.4435 59.9487C37.2995 59.9417 32.155 59.9417 27.01 59.9487C25.856 59.9487 24.7003 59.933 23.5445 59.9487C21.9272 59.9784 20.6509 60.8631 20.3466 62.3248C20.1596 63.2428 20.226 64.2149 20.1753 65.1556ZM41.3787 14.9455C41.606 14.1779 41.6951 13.4156 42.0553 12.8141C42.2966 12.412 42.405 12.1148 42.2791 11.7004C42.2022 11.4294 42.162 11.1461 42.085 10.8751C40.4817 5.23289 34.6979 3.19595 29.9369 6.58269C29.6505 6.76841 29.3197 6.87406 28.9787 6.88866C26.4417 7.02155 24.0831 9.18787 23.7981 11.7056C23.7701 11.9715 23.8231 12.2397 23.9502 12.4749C24.2404 12.9767 24.5989 13.4383 24.8734 13.8352C25.6986 13.6342 26.6375 13.4243 27.5642 13.1743C27.9139 13.0799 28.3283 12.9837 28.5678 12.7425C29.0902 12.2335 29.5472 11.6614 29.9281 11.0395C30.3565 10.3086 30.7779 10.1652 31.4125 10.7545C31.5087 10.8419 31.5874 10.9398 31.6835 11.036C33.0111 12.5083 34.82 13.4593 36.7855 13.7181C38.3976 13.9506 40.1215 13.7688 41.3822 14.9455H41.3787ZM2.9741 46.3528V45.5065C2.9741 34.5613 2.9741 23.6172 2.9741 12.6743C2.9741 11.6252 3.11922 11.4731 4.18577 11.4731H15.5C16.8078 11.4731 18.1226 11.4836 19.4235 11.4608C19.6123 11.4608 19.906 11.3262 19.9602 11.1828C20.0914 10.8332 20.1124 10.4415 20.1875 10.0009H19.5319C14.3005 10.0009 9.06859 10.0009 3.83609 10.0009C2.21353 10.0009 1.49842 10.7265 1.49842 12.3665C1.49842 23.4622 1.49842 34.5584 1.49842 45.6552C1.49842 45.886 1.52464 46.115 1.54038 46.3948C1.86559 46.3948 2.12261 46.3948 2.38138 46.3948C2.55273 46.3808 2.72233 46.3685 2.9741 46.3528ZM46.4107 9.9939C46.4404 10.2352 46.4474 10.3856 46.4789 10.5342C46.6712 11.4661 46.673 11.4661 47.6136 11.4661H61.9421C63.0576 11.4661 63.1922 11.599 63.1922 12.69C63.1922 23.6388 63.1922 34.5863 63.1922 45.5328V46.3493H64.6679V45.5835C64.6679 34.5263 64.6679 23.4697 64.6679 12.4137C64.6679 10.6933 63.9686 9.99041 62.2551 9.99041C57.2429 9.99041 52.2272 9.99041 47.208 9.99041L46.4107 9.9939ZM45.2008 13.3159C45.1553 8.84517 43.211 5.41123 39.4746 3.1435C35.2504 0.587274 30.923 0.746382 26.7547 3.36905C23.1127 5.66475 21.1282 9.81381 21.366 13.1918C21.9476 12.67 22.3204 11.955 22.415 11.1793C22.9064 8.17552 25.6112 5.71546 28.5084 5.4462C28.8468 5.41514 29.1726 5.30233 29.4578 5.11749C32.7798 2.84452 37.0041 2.88473 40.0848 5.25737C42.2144 6.89741 43.3299 9.14416 43.788 11.7406C43.9401 12.5868 44.8004 12.7215 45.2008 13.3229V13.3159ZM28.393 58.2702H37.7611V54.5477H28.393V58.2702ZM35.7364 28.5204C34.7975 28.6096 33.9583 28.753 33.1138 28.753C32.2693 28.753 31.3951 28.6131 30.5016 28.5309C30.4709 28.5961 30.4446 28.6633 30.4229 28.732C30.3199 29.0174 30.2495 29.3136 30.2131 29.6149C30.2131 29.8213 30.3023 30.1395 30.4526 30.2199C32.2308 31.1693 34.0282 31.1588 35.8029 30.2007C35.8777 30.1409 35.9373 30.0643 35.9768 29.977C36.0163 29.8898 36.0346 29.7945 36.0302 29.6989C35.9566 29.2987 35.8585 28.9033 35.7364 28.5152V28.5204ZM45.0801 20.0684C45.657 19.9196 46.1672 19.5815 46.5289 19.1081C46.8907 18.6348 47.083 18.0537 47.0751 17.458C47.0724 16.877 46.8741 16.3138 46.5122 15.8592C46.1502 15.4047 45.6458 15.0853 45.0801 14.9525V20.0684ZM21.2488 14.9437C20.0389 15.1588 19.2294 16.2935 19.2976 17.6468C19.3605 18.9127 20.2068 19.9425 21.2488 20.0247V14.9437ZM34.572 32.3932L36.1351 34.7991L37.8835 31.206C37.5024 31.206 37.2069 31.1256 36.9901 31.22C36.1945 31.5645 35.434 31.9683 34.572 32.3932ZM30.1414 34.7991L31.7028 32.4072C30.8286 31.9841 30.0592 31.5924 29.2724 31.2532C29.0469 31.1553 28.7567 31.213 28.3755 31.1938L30.1414 34.7991ZM43.0484 17.4895C43.0484 18.556 43.0362 19.6226 43.0607 20.6874C43.0607 20.8867 43.2198 21.0808 43.3037 21.2766C43.3929 21.0895 43.559 20.9042 43.5607 20.7154C43.5782 18.5613 43.5782 16.4049 43.5607 14.2461C43.5607 14.0625 43.3859 13.8789 43.3002 13.6936C43.2163 13.8912 43.0642 14.087 43.0607 14.2846C43.0344 15.3616 43.0467 16.4282 43.0467 17.493L43.0484 17.4895ZM23.27 17.5157C23.27 16.4282 23.2823 15.3389 23.2578 14.2514C23.2578 14.066 23.083 13.8842 22.985 13.7024C22.9064 13.8772 22.7577 14.052 22.7577 14.2269C22.7403 16.4031 22.7403 18.5788 22.7577 20.7538C22.7577 20.9287 22.9116 21.1035 22.9955 21.2784C23.0865 21.0913 23.2526 20.9059 23.2578 20.7171C23.2805 19.6523 23.2683 18.5805 23.2683 17.5192L23.27 17.5157Z" fill="black"/>
</g>
<defs>
<clipPath id="clip0_118_11">
<rect width="66.1803" height="66.7066" fill="white"/>
</clipPath>
</defs>
</svg>
